<mxfile host="app.diagrams.net" agent="Mozilla/5.0 (Windows NT 10.0; Win64; x64) AppleWebKit/537.36 (KHTML, like Gecko) Chrome/131.0.0.0 Safari/537.36" version="24.8.8">
  <diagram name="Page-1" id="LNXZqrtFh-sCrYqlfW2v">
    <mxGraphModel dx="2117" dy="522" grid="1" gridSize="10" guides="1" tooltips="1" connect="1" arrows="1" fold="1" page="1" pageScale="1" pageWidth="827" pageHeight="1169" math="0" shadow="0">
      <root>
        <mxCell id="0" />
        <mxCell id="1" parent="0" />
        <mxCell id="GjJDNJMha-C9_hyDsOLV-53" value="Login" style="html=1;dropTarget=0;whiteSpace=wrap;" vertex="1" parent="1">
          <mxGeometry x="730" y="180" width="180" height="90" as="geometry" />
        </mxCell>
        <mxCell id="GjJDNJMha-C9_hyDsOLV-54" value="" style="shape=module;jettyWidth=8;jettyHeight=4;" vertex="1" parent="GjJDNJMha-C9_hyDsOLV-53">
          <mxGeometry x="1" width="20" height="20" relative="1" as="geometry">
            <mxPoint x="-27" y="7" as="offset" />
          </mxGeometry>
        </mxCell>
        <mxCell id="GjJDNJMha-C9_hyDsOLV-55" value="Database" style="html=1;dropTarget=0;whiteSpace=wrap;" vertex="1" parent="1">
          <mxGeometry x="1100" y="210" width="160" height="70" as="geometry" />
        </mxCell>
        <mxCell id="GjJDNJMha-C9_hyDsOLV-56" value="" style="shape=module;jettyWidth=8;jettyHeight=4;" vertex="1" parent="GjJDNJMha-C9_hyDsOLV-55">
          <mxGeometry x="1" width="20" height="20" relative="1" as="geometry">
            <mxPoint x="-27" y="7" as="offset" />
          </mxGeometry>
        </mxCell>
        <mxCell id="GjJDNJMha-C9_hyDsOLV-57" value="" style="rounded=0;orthogonalLoop=1;jettySize=auto;html=1;endArrow=halfCircle;endFill=0;endSize=6;strokeWidth=1;sketch=0;exitX=0;exitY=0.5;exitDx=0;exitDy=0;" edge="1" target="GjJDNJMha-C9_hyDsOLV-59" parent="1" source="GjJDNJMha-C9_hyDsOLV-55">
          <mxGeometry relative="1" as="geometry">
            <mxPoint x="950" y="245" as="sourcePoint" />
          </mxGeometry>
        </mxCell>
        <mxCell id="GjJDNJMha-C9_hyDsOLV-58" value="" style="rounded=0;orthogonalLoop=1;jettySize=auto;html=1;endArrow=oval;endFill=0;sketch=0;sourcePerimeterSpacing=0;targetPerimeterSpacing=0;endSize=10;exitX=1;exitY=0.75;exitDx=0;exitDy=0;" edge="1" target="GjJDNJMha-C9_hyDsOLV-59" parent="1" source="GjJDNJMha-C9_hyDsOLV-53">
          <mxGeometry relative="1" as="geometry">
            <mxPoint x="910" y="245" as="sourcePoint" />
          </mxGeometry>
        </mxCell>
        <mxCell id="GjJDNJMha-C9_hyDsOLV-72" value="Check&lt;div&gt;Credentials&lt;/div&gt;" style="edgeLabel;html=1;align=center;verticalAlign=middle;resizable=0;points=[];" vertex="1" connectable="0" parent="GjJDNJMha-C9_hyDsOLV-58">
          <mxGeometry x="0.0741" y="-1" relative="1" as="geometry">
            <mxPoint as="offset" />
          </mxGeometry>
        </mxCell>
        <mxCell id="GjJDNJMha-C9_hyDsOLV-59" value="" style="ellipse;whiteSpace=wrap;html=1;align=center;aspect=fixed;fillColor=none;strokeColor=none;resizable=0;perimeter=centerPerimeter;rotatable=0;allowArrows=0;points=[];outlineConnect=1;" vertex="1" parent="1">
          <mxGeometry x="1000" y="240" width="10" height="10" as="geometry" />
        </mxCell>
        <mxCell id="GjJDNJMha-C9_hyDsOLV-61" value="Dashboards" style="shape=umlFrame;whiteSpace=wrap;html=1;pointerEvents=0;width=80;height=20;" vertex="1" parent="1">
          <mxGeometry x="250" y="70" width="300" height="590" as="geometry" />
        </mxCell>
        <mxCell id="GjJDNJMha-C9_hyDsOLV-62" value="Admin Dashboard" style="html=1;dropTarget=0;whiteSpace=wrap;" vertex="1" parent="1">
          <mxGeometry x="310" y="100" width="180" height="90" as="geometry" />
        </mxCell>
        <mxCell id="GjJDNJMha-C9_hyDsOLV-63" value="" style="shape=module;jettyWidth=8;jettyHeight=4;" vertex="1" parent="GjJDNJMha-C9_hyDsOLV-62">
          <mxGeometry x="1" width="20" height="20" relative="1" as="geometry">
            <mxPoint x="-27" y="7" as="offset" />
          </mxGeometry>
        </mxCell>
        <mxCell id="GjJDNJMha-C9_hyDsOLV-64" value="Patient Dashboard" style="html=1;dropTarget=0;whiteSpace=wrap;" vertex="1" parent="1">
          <mxGeometry x="310" y="210" width="180" height="90" as="geometry" />
        </mxCell>
        <mxCell id="GjJDNJMha-C9_hyDsOLV-65" value="" style="shape=module;jettyWidth=8;jettyHeight=4;" vertex="1" parent="GjJDNJMha-C9_hyDsOLV-64">
          <mxGeometry x="1" width="20" height="20" relative="1" as="geometry">
            <mxPoint x="-27" y="7" as="offset" />
          </mxGeometry>
        </mxCell>
        <mxCell id="GjJDNJMha-C9_hyDsOLV-66" value="Doctor Dashboard" style="html=1;dropTarget=0;whiteSpace=wrap;" vertex="1" parent="1">
          <mxGeometry x="310" y="320" width="180" height="90" as="geometry" />
        </mxCell>
        <mxCell id="GjJDNJMha-C9_hyDsOLV-67" value="" style="shape=module;jettyWidth=8;jettyHeight=4;" vertex="1" parent="GjJDNJMha-C9_hyDsOLV-66">
          <mxGeometry x="1" width="20" height="20" relative="1" as="geometry">
            <mxPoint x="-27" y="7" as="offset" />
          </mxGeometry>
        </mxCell>
        <mxCell id="GjJDNJMha-C9_hyDsOLV-68" value="Nurse Dashboard" style="html=1;dropTarget=0;whiteSpace=wrap;" vertex="1" parent="1">
          <mxGeometry x="310" y="430" width="180" height="90" as="geometry" />
        </mxCell>
        <mxCell id="GjJDNJMha-C9_hyDsOLV-69" value="" style="shape=module;jettyWidth=8;jettyHeight=4;" vertex="1" parent="GjJDNJMha-C9_hyDsOLV-68">
          <mxGeometry x="1" width="20" height="20" relative="1" as="geometry">
            <mxPoint x="-27" y="7" as="offset" />
          </mxGeometry>
        </mxCell>
        <mxCell id="GjJDNJMha-C9_hyDsOLV-70" value="ED Staff Dashboard" style="html=1;dropTarget=0;whiteSpace=wrap;" vertex="1" parent="1">
          <mxGeometry x="310" y="540" width="180" height="90" as="geometry" />
        </mxCell>
        <mxCell id="GjJDNJMha-C9_hyDsOLV-71" value="" style="shape=module;jettyWidth=8;jettyHeight=4;" vertex="1" parent="GjJDNJMha-C9_hyDsOLV-70">
          <mxGeometry x="1" width="20" height="20" relative="1" as="geometry">
            <mxPoint x="-27" y="7" as="offset" />
          </mxGeometry>
        </mxCell>
        <mxCell id="GjJDNJMha-C9_hyDsOLV-73" value="" style="rounded=0;orthogonalLoop=1;jettySize=auto;html=1;endArrow=halfCircle;endFill=0;endSize=6;strokeWidth=1;sketch=0;exitX=1;exitY=0.5;exitDx=0;exitDy=0;" edge="1" target="GjJDNJMha-C9_hyDsOLV-75" parent="1" source="GjJDNJMha-C9_hyDsOLV-62">
          <mxGeometry relative="1" as="geometry">
            <mxPoint x="690" y="125" as="sourcePoint" />
          </mxGeometry>
        </mxCell>
        <mxCell id="GjJDNJMha-C9_hyDsOLV-74" value="Login If Admin" style="rounded=0;orthogonalLoop=1;jettySize=auto;html=1;endArrow=oval;endFill=0;sketch=0;sourcePerimeterSpacing=0;targetPerimeterSpacing=0;endSize=10;exitX=0.5;exitY=0;exitDx=0;exitDy=0;" edge="1" target="GjJDNJMha-C9_hyDsOLV-75" parent="1" source="GjJDNJMha-C9_hyDsOLV-53">
          <mxGeometry relative="1" as="geometry">
            <mxPoint x="650" y="125" as="sourcePoint" />
          </mxGeometry>
        </mxCell>
        <mxCell id="GjJDNJMha-C9_hyDsOLV-75" value="" style="ellipse;whiteSpace=wrap;html=1;align=center;aspect=fixed;fillColor=none;strokeColor=none;resizable=0;perimeter=centerPerimeter;rotatable=0;allowArrows=0;points=[];outlineConnect=1;" vertex="1" parent="1">
          <mxGeometry x="665" y="120" width="10" height="10" as="geometry" />
        </mxCell>
        <mxCell id="GjJDNJMha-C9_hyDsOLV-76" value="" style="rounded=0;orthogonalLoop=1;jettySize=auto;html=1;endArrow=halfCircle;endFill=0;endSize=6;strokeWidth=1;sketch=0;exitX=1;exitY=0.5;exitDx=0;exitDy=0;" edge="1" target="GjJDNJMha-C9_hyDsOLV-78" parent="1" source="GjJDNJMha-C9_hyDsOLV-64">
          <mxGeometry relative="1" as="geometry">
            <mxPoint x="640" y="245" as="sourcePoint" />
          </mxGeometry>
        </mxCell>
        <mxCell id="GjJDNJMha-C9_hyDsOLV-77" value="Login If Patient" style="rounded=0;orthogonalLoop=1;jettySize=auto;html=1;endArrow=oval;endFill=0;sketch=0;sourcePerimeterSpacing=0;targetPerimeterSpacing=0;endSize=10;" edge="1" target="GjJDNJMha-C9_hyDsOLV-78" parent="1" source="GjJDNJMha-C9_hyDsOLV-53">
          <mxGeometry relative="1" as="geometry">
            <mxPoint x="600" y="245" as="sourcePoint" />
          </mxGeometry>
        </mxCell>
        <mxCell id="GjJDNJMha-C9_hyDsOLV-78" value="" style="ellipse;whiteSpace=wrap;html=1;align=center;aspect=fixed;fillColor=none;strokeColor=none;resizable=0;perimeter=centerPerimeter;rotatable=0;allowArrows=0;points=[];outlineConnect=1;" vertex="1" parent="1">
          <mxGeometry x="615" y="240" width="10" height="10" as="geometry" />
        </mxCell>
        <mxCell id="GjJDNJMha-C9_hyDsOLV-79" value="" style="rounded=0;orthogonalLoop=1;jettySize=auto;html=1;endArrow=halfCircle;endFill=0;endSize=6;strokeWidth=1;sketch=0;exitX=1;exitY=0.75;exitDx=0;exitDy=0;" edge="1" target="GjJDNJMha-C9_hyDsOLV-81" parent="1" source="GjJDNJMha-C9_hyDsOLV-66">
          <mxGeometry relative="1" as="geometry">
            <mxPoint x="640" y="365" as="sourcePoint" />
          </mxGeometry>
        </mxCell>
        <mxCell id="GjJDNJMha-C9_hyDsOLV-80" value="Login If Doctor" style="rounded=0;orthogonalLoop=1;jettySize=auto;html=1;endArrow=oval;endFill=0;sketch=0;sourcePerimeterSpacing=0;targetPerimeterSpacing=0;endSize=10;exitX=0.5;exitY=1;exitDx=0;exitDy=0;" edge="1" target="GjJDNJMha-C9_hyDsOLV-81" parent="1" source="GjJDNJMha-C9_hyDsOLV-53">
          <mxGeometry relative="1" as="geometry">
            <mxPoint x="600" y="365" as="sourcePoint" />
          </mxGeometry>
        </mxCell>
        <mxCell id="GjJDNJMha-C9_hyDsOLV-81" value="" style="ellipse;whiteSpace=wrap;html=1;align=center;aspect=fixed;fillColor=none;strokeColor=none;resizable=0;perimeter=centerPerimeter;rotatable=0;allowArrows=0;points=[];outlineConnect=1;" vertex="1" parent="1">
          <mxGeometry x="615" y="360" width="10" height="10" as="geometry" />
        </mxCell>
        <mxCell id="GjJDNJMha-C9_hyDsOLV-82" value="" style="rounded=0;orthogonalLoop=1;jettySize=auto;html=1;endArrow=halfCircle;endFill=0;endSize=6;strokeWidth=1;sketch=0;exitX=1;exitY=0.5;exitDx=0;exitDy=0;" edge="1" target="GjJDNJMha-C9_hyDsOLV-84" parent="1" source="GjJDNJMha-C9_hyDsOLV-68">
          <mxGeometry relative="1" as="geometry">
            <mxPoint x="625" y="475" as="sourcePoint" />
          </mxGeometry>
        </mxCell>
        <mxCell id="GjJDNJMha-C9_hyDsOLV-83" value="Login If Nurse" style="rounded=0;orthogonalLoop=1;jettySize=auto;html=1;endArrow=oval;endFill=0;sketch=0;sourcePerimeterSpacing=0;targetPerimeterSpacing=0;endSize=10;exitX=0.5;exitY=1;exitDx=0;exitDy=0;" edge="1" target="GjJDNJMha-C9_hyDsOLV-84" parent="1" source="GjJDNJMha-C9_hyDsOLV-53">
          <mxGeometry relative="1" as="geometry">
            <mxPoint x="760" y="270" as="sourcePoint" />
          </mxGeometry>
        </mxCell>
        <mxCell id="GjJDNJMha-C9_hyDsOLV-84" value="" style="ellipse;whiteSpace=wrap;html=1;align=center;aspect=fixed;fillColor=none;strokeColor=none;resizable=0;perimeter=centerPerimeter;rotatable=0;allowArrows=0;points=[];outlineConnect=1;" vertex="1" parent="1">
          <mxGeometry x="600" y="470" width="10" height="10" as="geometry" />
        </mxCell>
        <mxCell id="GjJDNJMha-C9_hyDsOLV-85" value="" style="rounded=0;orthogonalLoop=1;jettySize=auto;html=1;endArrow=halfCircle;endFill=0;endSize=6;strokeWidth=1;sketch=0;exitX=1;exitY=0.5;exitDx=0;exitDy=0;" edge="1" target="GjJDNJMha-C9_hyDsOLV-87" parent="1" source="GjJDNJMha-C9_hyDsOLV-70">
          <mxGeometry relative="1" as="geometry">
            <mxPoint x="625" y="590" as="sourcePoint" />
          </mxGeometry>
        </mxCell>
        <mxCell id="GjJDNJMha-C9_hyDsOLV-86" value="Login if ED Staff" style="rounded=0;orthogonalLoop=1;jettySize=auto;html=1;endArrow=oval;endFill=0;sketch=0;sourcePerimeterSpacing=0;targetPerimeterSpacing=0;endSize=10;exitX=0.5;exitY=1;exitDx=0;exitDy=0;" edge="1" target="GjJDNJMha-C9_hyDsOLV-87" parent="1" source="GjJDNJMha-C9_hyDsOLV-53">
          <mxGeometry relative="1" as="geometry">
            <mxPoint x="760" y="270" as="sourcePoint" />
          </mxGeometry>
        </mxCell>
        <mxCell id="GjJDNJMha-C9_hyDsOLV-87" value="" style="ellipse;whiteSpace=wrap;html=1;align=center;aspect=fixed;fillColor=none;strokeColor=none;resizable=0;perimeter=centerPerimeter;rotatable=0;allowArrows=0;points=[];outlineConnect=1;" vertex="1" parent="1">
          <mxGeometry x="600" y="585" width="10" height="10" as="geometry" />
        </mxCell>
        <mxCell id="GjJDNJMha-C9_hyDsOLV-88" value="Database" style="html=1;dropTarget=0;whiteSpace=wrap;" vertex="1" parent="1">
          <mxGeometry x="-10" y="90" width="160" height="70" as="geometry" />
        </mxCell>
        <mxCell id="GjJDNJMha-C9_hyDsOLV-89" value="" style="shape=module;jettyWidth=8;jettyHeight=4;" vertex="1" parent="GjJDNJMha-C9_hyDsOLV-88">
          <mxGeometry x="1" width="20" height="20" relative="1" as="geometry">
            <mxPoint x="-27" y="7" as="offset" />
          </mxGeometry>
        </mxCell>
        <mxCell id="GjJDNJMha-C9_hyDsOLV-90" value="Modify Users" style="rounded=0;orthogonalLoop=1;jettySize=auto;html=1;endArrow=halfCircle;endFill=0;endSize=6;strokeWidth=1;sketch=0;exitX=0;exitY=0.5;exitDx=0;exitDy=0;" edge="1" parent="1" source="GjJDNJMha-C9_hyDsOLV-62">
          <mxGeometry relative="1" as="geometry">
            <mxPoint x="140" y="185" as="sourcePoint" />
            <mxPoint x="190" y="110" as="targetPoint" />
          </mxGeometry>
        </mxCell>
        <mxCell id="GjJDNJMha-C9_hyDsOLV-91" value="" style="rounded=0;orthogonalLoop=1;jettySize=auto;html=1;endArrow=oval;endFill=0;sketch=0;sourcePerimeterSpacing=0;targetPerimeterSpacing=0;endSize=10;exitX=1;exitY=0.5;exitDx=0;exitDy=0;" edge="1" parent="1" source="GjJDNJMha-C9_hyDsOLV-88">
          <mxGeometry relative="1" as="geometry">
            <mxPoint x="100" y="185" as="sourcePoint" />
            <mxPoint x="190" y="110" as="targetPoint" />
          </mxGeometry>
        </mxCell>
        <mxCell id="GjJDNJMha-C9_hyDsOLV-92" value="" style="ellipse;whiteSpace=wrap;html=1;align=center;aspect=fixed;fillColor=none;strokeColor=none;resizable=0;perimeter=centerPerimeter;rotatable=0;allowArrows=0;points=[];outlineConnect=1;" vertex="1" parent="1">
          <mxGeometry x="115" y="180" width="10" height="10" as="geometry" />
        </mxCell>
        <mxCell id="GjJDNJMha-C9_hyDsOLV-93" value="&amp;lt;&amp;lt;Subsystem&amp;gt;&amp;gt;&lt;div&gt;Virtual Triage System&lt;/div&gt;" style="html=1;dropTarget=0;whiteSpace=wrap;" vertex="1" parent="1">
          <mxGeometry y="250" width="180" height="90" as="geometry" />
        </mxCell>
        <mxCell id="GjJDNJMha-C9_hyDsOLV-94" value="" style="shape=module;jettyWidth=8;jettyHeight=4;" vertex="1" parent="GjJDNJMha-C9_hyDsOLV-93">
          <mxGeometry x="1" width="20" height="20" relative="1" as="geometry">
            <mxPoint x="-27" y="7" as="offset" />
          </mxGeometry>
        </mxCell>
        <mxCell id="GjJDNJMha-C9_hyDsOLV-95" value="Modify Personal Information" style="rounded=0;orthogonalLoop=1;jettySize=auto;html=1;endArrow=halfCircle;endFill=0;endSize=6;strokeWidth=1;sketch=0;exitX=-0.001;exitY=0.413;exitDx=0;exitDy=0;exitPerimeter=0;" edge="1" parent="1" source="GjJDNJMha-C9_hyDsOLV-64">
          <mxGeometry relative="1" as="geometry">
            <mxPoint x="210" y="215" as="sourcePoint" />
            <mxPoint x="165" y="195" as="targetPoint" />
          </mxGeometry>
        </mxCell>
        <mxCell id="GjJDNJMha-C9_hyDsOLV-100" value="" style="rounded=0;orthogonalLoop=1;jettySize=auto;html=1;endArrow=oval;endFill=0;sketch=0;sourcePerimeterSpacing=0;targetPerimeterSpacing=0;endSize=10;exitX=0.75;exitY=1;exitDx=0;exitDy=0;" edge="1" target="GjJDNJMha-C9_hyDsOLV-101" parent="1" source="GjJDNJMha-C9_hyDsOLV-88">
          <mxGeometry relative="1" as="geometry">
            <mxPoint x="100" y="175" as="sourcePoint" />
          </mxGeometry>
        </mxCell>
        <mxCell id="GjJDNJMha-C9_hyDsOLV-101" value="" style="ellipse;whiteSpace=wrap;html=1;align=center;aspect=fixed;fillColor=none;strokeColor=none;resizable=0;perimeter=centerPerimeter;rotatable=0;allowArrows=0;points=[];outlineConnect=1;" vertex="1" parent="1">
          <mxGeometry x="160" y="190" width="10" height="10" as="geometry" />
        </mxCell>
        <mxCell id="GjJDNJMha-C9_hyDsOLV-102" value="Assign Nurse" style="rounded=0;orthogonalLoop=1;jettySize=auto;html=1;endArrow=halfCircle;endFill=0;endSize=6;strokeWidth=1;sketch=0;exitX=0.457;exitY=1.025;exitDx=0;exitDy=0;exitPerimeter=0;" edge="1" target="GjJDNJMha-C9_hyDsOLV-104" parent="1" source="GjJDNJMha-C9_hyDsOLV-93">
          <mxGeometry relative="1" as="geometry">
            <mxPoint x="170" y="405" as="sourcePoint" />
          </mxGeometry>
        </mxCell>
        <mxCell id="GjJDNJMha-C9_hyDsOLV-103" value="" style="rounded=0;orthogonalLoop=1;jettySize=auto;html=1;endArrow=oval;endFill=0;sketch=0;sourcePerimeterSpacing=0;targetPerimeterSpacing=0;endSize=10;exitX=0;exitY=0.25;exitDx=0;exitDy=0;" edge="1" target="GjJDNJMha-C9_hyDsOLV-104" parent="1" source="GjJDNJMha-C9_hyDsOLV-68">
          <mxGeometry relative="1" as="geometry">
            <mxPoint x="130" y="405" as="sourcePoint" />
          </mxGeometry>
        </mxCell>
        <mxCell id="GjJDNJMha-C9_hyDsOLV-104" value="" style="ellipse;whiteSpace=wrap;html=1;align=center;aspect=fixed;fillColor=none;strokeColor=none;resizable=0;perimeter=centerPerimeter;rotatable=0;allowArrows=0;points=[];outlineConnect=1;" vertex="1" parent="1">
          <mxGeometry x="145" y="400" width="10" height="10" as="geometry" />
        </mxCell>
        <mxCell id="GjJDNJMha-C9_hyDsOLV-105" value="" style="rounded=0;orthogonalLoop=1;jettySize=auto;html=1;endArrow=halfCircle;endFill=0;endSize=6;strokeWidth=1;sketch=0;exitX=1.01;exitY=0.67;exitDx=0;exitDy=0;exitPerimeter=0;" edge="1" target="GjJDNJMha-C9_hyDsOLV-107" parent="1" source="GjJDNJMha-C9_hyDsOLV-93">
          <mxGeometry relative="1" as="geometry">
            <mxPoint x="240" y="285" as="sourcePoint" />
          </mxGeometry>
        </mxCell>
        <mxCell id="GjJDNJMha-C9_hyDsOLV-106" value="Complete&lt;br&gt;Triage" style="rounded=0;orthogonalLoop=1;jettySize=auto;html=1;endArrow=oval;endFill=0;sketch=0;sourcePerimeterSpacing=0;targetPerimeterSpacing=0;endSize=10;exitX=0;exitY=0.5;exitDx=0;exitDy=0;" edge="1" target="GjJDNJMha-C9_hyDsOLV-107" parent="1" source="GjJDNJMha-C9_hyDsOLV-64">
          <mxGeometry relative="1" as="geometry">
            <mxPoint x="200" y="285" as="sourcePoint" />
          </mxGeometry>
        </mxCell>
        <mxCell id="GjJDNJMha-C9_hyDsOLV-107" value="" style="ellipse;whiteSpace=wrap;html=1;align=center;aspect=fixed;fillColor=none;strokeColor=none;resizable=0;perimeter=centerPerimeter;rotatable=0;allowArrows=0;points=[];outlineConnect=1;" vertex="1" parent="1">
          <mxGeometry x="215" y="280" width="10" height="10" as="geometry" />
        </mxCell>
        <mxCell id="GjJDNJMha-C9_hyDsOLV-108" value="&amp;lt;&amp;lt;Subsystem&amp;gt;&amp;gt;&lt;div&gt;Appointment System&lt;/div&gt;" style="html=1;dropTarget=0;whiteSpace=wrap;" vertex="1" parent="1">
          <mxGeometry x="-140" y="470" width="180" height="90" as="geometry" />
        </mxCell>
        <mxCell id="GjJDNJMha-C9_hyDsOLV-109" value="" style="shape=module;jettyWidth=8;jettyHeight=4;" vertex="1" parent="GjJDNJMha-C9_hyDsOLV-108">
          <mxGeometry x="1" width="20" height="20" relative="1" as="geometry">
            <mxPoint x="-27" y="7" as="offset" />
          </mxGeometry>
        </mxCell>
        <mxCell id="GjJDNJMha-C9_hyDsOLV-113" value="Schedule Appointment" style="rounded=0;orthogonalLoop=1;jettySize=auto;html=1;endArrow=halfCircle;endFill=0;endSize=6;strokeWidth=1;sketch=0;exitX=0.057;exitY=1.027;exitDx=0;exitDy=0;exitPerimeter=0;" edge="1" target="GjJDNJMha-C9_hyDsOLV-115" parent="1" source="GjJDNJMha-C9_hyDsOLV-93">
          <mxGeometry relative="1" as="geometry">
            <mxPoint x="20" y="415" as="sourcePoint" />
          </mxGeometry>
        </mxCell>
        <mxCell id="GjJDNJMha-C9_hyDsOLV-114" value="" style="rounded=0;orthogonalLoop=1;jettySize=auto;html=1;endArrow=oval;endFill=0;sketch=0;sourcePerimeterSpacing=0;targetPerimeterSpacing=0;endSize=10;exitX=0.5;exitY=0;exitDx=0;exitDy=0;" edge="1" target="GjJDNJMha-C9_hyDsOLV-115" parent="1" source="GjJDNJMha-C9_hyDsOLV-108">
          <mxGeometry relative="1" as="geometry">
            <mxPoint x="-20" y="415" as="sourcePoint" />
          </mxGeometry>
        </mxCell>
        <mxCell id="GjJDNJMha-C9_hyDsOLV-115" value="" style="ellipse;whiteSpace=wrap;html=1;align=center;aspect=fixed;fillColor=none;strokeColor=none;resizable=0;perimeter=centerPerimeter;rotatable=0;allowArrows=0;points=[];outlineConnect=1;" vertex="1" parent="1">
          <mxGeometry x="-5" y="410" width="10" height="10" as="geometry" />
        </mxCell>
        <mxCell id="GjJDNJMha-C9_hyDsOLV-116" value="Update Triage Responses and assement" style="rounded=0;orthogonalLoop=1;jettySize=auto;html=1;endArrow=halfCircle;endFill=0;endSize=6;strokeWidth=1;sketch=0;exitX=0.5;exitY=0;exitDx=0;exitDy=0;" edge="1" target="GjJDNJMha-C9_hyDsOLV-118" parent="1" source="GjJDNJMha-C9_hyDsOLV-93">
          <mxGeometry relative="1" as="geometry">
            <mxPoint x="50" y="205" as="sourcePoint" />
          </mxGeometry>
        </mxCell>
        <mxCell id="GjJDNJMha-C9_hyDsOLV-117" value="" style="rounded=0;orthogonalLoop=1;jettySize=auto;html=1;endArrow=oval;endFill=0;sketch=0;sourcePerimeterSpacing=0;targetPerimeterSpacing=0;endSize=10;exitX=0.25;exitY=1;exitDx=0;exitDy=0;" edge="1" target="GjJDNJMha-C9_hyDsOLV-118" parent="1" source="GjJDNJMha-C9_hyDsOLV-88">
          <mxGeometry relative="1" as="geometry">
            <mxPoint x="10" y="205" as="sourcePoint" />
          </mxGeometry>
        </mxCell>
        <mxCell id="GjJDNJMha-C9_hyDsOLV-118" value="" style="ellipse;whiteSpace=wrap;html=1;align=center;aspect=fixed;fillColor=none;strokeColor=none;resizable=0;perimeter=centerPerimeter;rotatable=0;allowArrows=0;points=[];outlineConnect=1;" vertex="1" parent="1">
          <mxGeometry x="25" y="200" width="10" height="10" as="geometry" />
        </mxCell>
        <mxCell id="GjJDNJMha-C9_hyDsOLV-119" value="Notify" style="rounded=0;orthogonalLoop=1;jettySize=auto;html=1;endArrow=halfCircle;endFill=0;endSize=6;strokeWidth=1;sketch=0;exitX=1.008;exitY=0.336;exitDx=0;exitDy=0;exitPerimeter=0;" edge="1" parent="1" source="GjJDNJMha-C9_hyDsOLV-108">
          <mxGeometry relative="1" as="geometry">
            <mxPoint x="155" y="475" as="sourcePoint" />
            <mxPoint x="160" y="440" as="targetPoint" />
          </mxGeometry>
        </mxCell>
        <mxCell id="GjJDNJMha-C9_hyDsOLV-120" value="" style="rounded=0;orthogonalLoop=1;jettySize=auto;html=1;endArrow=oval;endFill=0;sketch=0;sourcePerimeterSpacing=0;targetPerimeterSpacing=0;endSize=10;exitX=0;exitY=0.75;exitDx=0;exitDy=0;" edge="1" parent="1" source="GjJDNJMha-C9_hyDsOLV-64">
          <mxGeometry relative="1" as="geometry">
            <mxPoint x="115" y="475" as="sourcePoint" />
            <mxPoint x="160" y="440" as="targetPoint" />
          </mxGeometry>
        </mxCell>
        <mxCell id="GjJDNJMha-C9_hyDsOLV-121" value="" style="ellipse;whiteSpace=wrap;html=1;align=center;aspect=fixed;fillColor=none;strokeColor=none;resizable=0;perimeter=centerPerimeter;rotatable=0;allowArrows=0;points=[];outlineConnect=1;" vertex="1" parent="1">
          <mxGeometry x="130" y="470" width="10" height="10" as="geometry" />
        </mxCell>
        <mxCell id="GjJDNJMha-C9_hyDsOLV-122" value="Notify" style="rounded=0;orthogonalLoop=1;jettySize=auto;html=1;endArrow=halfCircle;endFill=0;endSize=6;strokeWidth=1;sketch=0;exitX=1;exitY=0.5;exitDx=0;exitDy=0;" edge="1" parent="1" source="GjJDNJMha-C9_hyDsOLV-108">
          <mxGeometry relative="1" as="geometry">
            <mxPoint x="150" y="535" as="sourcePoint" />
            <mxPoint x="190" y="480" as="targetPoint" />
          </mxGeometry>
        </mxCell>
        <mxCell id="GjJDNJMha-C9_hyDsOLV-123" value="" style="rounded=0;orthogonalLoop=1;jettySize=auto;html=1;endArrow=oval;endFill=0;sketch=0;sourcePerimeterSpacing=0;targetPerimeterSpacing=0;endSize=10;exitX=0;exitY=0.5;exitDx=0;exitDy=0;" edge="1" parent="1" source="GjJDNJMha-C9_hyDsOLV-66">
          <mxGeometry relative="1" as="geometry">
            <mxPoint x="110" y="535" as="sourcePoint" />
            <mxPoint x="190" y="480" as="targetPoint" />
          </mxGeometry>
        </mxCell>
        <mxCell id="GjJDNJMha-C9_hyDsOLV-124" value="" style="ellipse;whiteSpace=wrap;html=1;align=center;aspect=fixed;fillColor=none;strokeColor=none;resizable=0;perimeter=centerPerimeter;rotatable=0;allowArrows=0;points=[];outlineConnect=1;" vertex="1" parent="1">
          <mxGeometry x="125" y="530" width="10" height="10" as="geometry" />
        </mxCell>
        <mxCell id="GjJDNJMha-C9_hyDsOLV-125" value="Notify" style="rounded=0;orthogonalLoop=1;jettySize=auto;html=1;endArrow=halfCircle;endFill=0;endSize=6;strokeWidth=1;sketch=0;exitX=1;exitY=0.627;exitDx=0;exitDy=0;exitPerimeter=0;" edge="1" target="GjJDNJMha-C9_hyDsOLV-127" parent="1" source="GjJDNJMha-C9_hyDsOLV-108">
          <mxGeometry relative="1" as="geometry">
            <mxPoint x="185" y="545" as="sourcePoint" />
          </mxGeometry>
        </mxCell>
        <mxCell id="GjJDNJMha-C9_hyDsOLV-126" value="" style="rounded=0;orthogonalLoop=1;jettySize=auto;html=1;endArrow=oval;endFill=0;sketch=0;sourcePerimeterSpacing=0;targetPerimeterSpacing=0;endSize=10;exitX=0;exitY=0.5;exitDx=0;exitDy=0;" edge="1" target="GjJDNJMha-C9_hyDsOLV-127" parent="1" source="GjJDNJMha-C9_hyDsOLV-70">
          <mxGeometry relative="1" as="geometry">
            <mxPoint x="145" y="545" as="sourcePoint" />
          </mxGeometry>
        </mxCell>
        <mxCell id="GjJDNJMha-C9_hyDsOLV-127" value="" style="ellipse;whiteSpace=wrap;html=1;align=center;aspect=fixed;fillColor=none;strokeColor=none;resizable=0;perimeter=centerPerimeter;rotatable=0;allowArrows=0;points=[];outlineConnect=1;" vertex="1" parent="1">
          <mxGeometry x="160" y="540" width="10" height="10" as="geometry" />
        </mxCell>
        <mxCell id="GjJDNJMha-C9_hyDsOLV-128" value="Hospital Management" style="html=1;dropTarget=0;whiteSpace=wrap;" vertex="1" parent="1">
          <mxGeometry x="320" y="740" width="180" height="90" as="geometry" />
        </mxCell>
        <mxCell id="GjJDNJMha-C9_hyDsOLV-129" value="" style="shape=module;jettyWidth=8;jettyHeight=4;" vertex="1" parent="GjJDNJMha-C9_hyDsOLV-128">
          <mxGeometry x="1" width="20" height="20" relative="1" as="geometry">
            <mxPoint x="-27" y="7" as="offset" />
          </mxGeometry>
        </mxCell>
        <mxCell id="GjJDNJMha-C9_hyDsOLV-130" value="Log New patients/view load" style="rounded=0;orthogonalLoop=1;jettySize=auto;html=1;endArrow=halfCircle;endFill=0;endSize=6;strokeWidth=1;sketch=0;exitX=0.5;exitY=1;exitDx=0;exitDy=0;" edge="1" parent="1" source="GjJDNJMha-C9_hyDsOLV-70">
          <mxGeometry relative="1" as="geometry">
            <mxPoint x="265" y="705" as="sourcePoint" />
            <mxPoint x="400" y="700" as="targetPoint" />
          </mxGeometry>
        </mxCell>
        <mxCell id="GjJDNJMha-C9_hyDsOLV-131" value="" style="rounded=0;orthogonalLoop=1;jettySize=auto;html=1;endArrow=oval;endFill=0;sketch=0;sourcePerimeterSpacing=0;targetPerimeterSpacing=0;endSize=10;exitX=0.452;exitY=-0.022;exitDx=0;exitDy=0;exitPerimeter=0;" edge="1" parent="1" source="GjJDNJMha-C9_hyDsOLV-128">
          <mxGeometry relative="1" as="geometry">
            <mxPoint x="225" y="705" as="sourcePoint" />
            <mxPoint x="400" y="700" as="targetPoint" />
          </mxGeometry>
        </mxCell>
        <mxCell id="GjJDNJMha-C9_hyDsOLV-132" value="" style="ellipse;whiteSpace=wrap;html=1;align=center;aspect=fixed;fillColor=none;strokeColor=none;resizable=0;perimeter=centerPerimeter;rotatable=0;allowArrows=0;points=[];outlineConnect=1;" vertex="1" parent="1">
          <mxGeometry x="240" y="700" width="10" height="10" as="geometry" />
        </mxCell>
        <mxCell id="GjJDNJMha-C9_hyDsOLV-133" value="Database" style="html=1;dropTarget=0;whiteSpace=wrap;" vertex="1" parent="1">
          <mxGeometry x="675" y="690" width="160" height="70" as="geometry" />
        </mxCell>
        <mxCell id="GjJDNJMha-C9_hyDsOLV-134" value="" style="shape=module;jettyWidth=8;jettyHeight=4;" vertex="1" parent="GjJDNJMha-C9_hyDsOLV-133">
          <mxGeometry x="1" width="20" height="20" relative="1" as="geometry">
            <mxPoint x="-27" y="7" as="offset" />
          </mxGeometry>
        </mxCell>
        <mxCell id="GjJDNJMha-C9_hyDsOLV-138" value="Modify/Get information" style="rounded=0;orthogonalLoop=1;jettySize=auto;html=1;endArrow=halfCircle;endFill=0;endSize=6;strokeWidth=1;sketch=0;exitX=1.003;exitY=0.6;exitDx=0;exitDy=0;exitPerimeter=0;" edge="1" target="GjJDNJMha-C9_hyDsOLV-140" parent="1" source="GjJDNJMha-C9_hyDsOLV-128">
          <mxGeometry relative="1" as="geometry">
            <mxPoint x="570" y="755" as="sourcePoint" />
          </mxGeometry>
        </mxCell>
        <mxCell id="GjJDNJMha-C9_hyDsOLV-139" value="" style="rounded=0;orthogonalLoop=1;jettySize=auto;html=1;endArrow=oval;endFill=0;sketch=0;sourcePerimeterSpacing=0;targetPerimeterSpacing=0;endSize=10;exitX=0;exitY=0.5;exitDx=0;exitDy=0;" edge="1" target="GjJDNJMha-C9_hyDsOLV-140" parent="1" source="GjJDNJMha-C9_hyDsOLV-133">
          <mxGeometry relative="1" as="geometry">
            <mxPoint x="620" y="720" as="sourcePoint" />
          </mxGeometry>
        </mxCell>
        <mxCell id="GjJDNJMha-C9_hyDsOLV-140" value="" style="ellipse;whiteSpace=wrap;html=1;align=center;aspect=fixed;fillColor=none;strokeColor=none;resizable=0;perimeter=centerPerimeter;rotatable=0;allowArrows=0;points=[];outlineConnect=1;" vertex="1" parent="1">
          <mxGeometry x="650" y="790" width="10" height="10" as="geometry" />
        </mxCell>
      </root>
    </mxGraphModel>
  </diagram>
</mxfile>
